<?xml version="1.0" encoding="UTF-8" standalone="no"?>
<svg width="100px" height="100px" viewBox="0 0 100 100" version="1.1" xmlns="http://www.w3.org/2000/svg" xmlns:xlink="http://www.w3.org/1999/xlink" xmlns:sketch="http://www.bohemiancoding.com/sketch/ns">
    <!-- Generator: Sketch 3.1.1 (8761) - http://www.bohemiancoding.com/sketch -->
    <title>graph 2</title>
    <desc>Created with Sketch.</desc>
    <defs></defs>
    <g id="Page-1" stroke="none" stroke-width="1" fill="none" fill-rule="evenodd" sketch:type="MSPage">
        <g id="graph" sketch:type="MSLayerGroup">
            <path d="M50,0 C77.614,0 100,22.386 100,50 C100,77.614 77.614,100 50,100 C22.386,100 0,77.614 0,50 C0,22.386 22.386,0 50,0 L50,0 Z" id="Shape" fill="#BDC3C7" sketch:type="MSShapeGroup"></path>
            <path d="M78,40 L51,62 L21,49 L1.039,60.178 C5.741,82.911 25.874,100 50,100 C77.614,100 100,77.614 100,50 C100,44.646 99.149,39.493 97.592,34.657 L78,40 L78,40 Z" id="Shape" fill="#3498DB" sketch:type="MSShapeGroup"></path>
            <g id="Group" transform="translate(20.000000, 0.000000)" fill="#FFFFFF" sketch:type="MSShapeGroup">
                <path d="M0,90.001 C0.655,90.492 1.321,90.97 2,91.43 L2,8.571 C1.321,9.031 0.655,9.508 0,10 L0,90.001 L0,90.001 Z M58,91.43 C58.679,90.97 59.346,90.492 60,90.001 L60,10 C59.346,9.508 58.679,9.031 58,8.571 L58,91.43 L58,91.43 Z M31,0.025 L30,0 L29,0.025 L29,99.974 L30,99.999 L31,99.974 L31,0.025 L31,0.025 Z" id="Shape"></path>
            </g>
            <path d="M78,40 L51,62 L21,49 L1.039,60.178 C5.741,82.911 25.874,100 50,100 C77.614,100 100,77.614 100,50 C100,44.646 99.149,39.493 97.592,34.657 L78,40 L78,40 Z" id="Shape" fill="#3498DB" sketch:type="MSShapeGroup"></path>
            <path d="M78,40 L78,91.43 L78.159,91.317 C78.78,90.892 79.394,90.456 79.995,90.005 L80,90.001 L80,39.455 L78,40 L78,40 Z M49,99.975 L50,100 L51,99.975 L51,62 L49,61.134 L49,99.975 L49,99.975 Z M20,49.56 L20,89.999 L20.219,90.157 C20.745,90.548 21.277,90.929 21.819,91.3 L22,91.42 L22,49.434 L21,49 L20,49.56 L20,49.56 Z" id="Shape" fill="#2980B9" sketch:type="MSShapeGroup"></path>
            <g id="Group" transform="translate(12.000000, 36.000000)" fill="#FFFFFF" sketch:type="MSShapeGroup">
                <path d="M38,33 C34.134,33 31,29.866 31,26 C31,24.578 31.426,23.258 32.154,22.154 C30.255,23.406 29,25.555 29,28 C29,31.866 32.134,35 36,35 C38.445,35 40.594,33.745 41.846,31.846 C40.742,32.573 39.422,33 38,33 L38,33 Z M9,20 C5.134,20 2,16.866 2,13 C2,11.579 2.426,10.258 3.154,9.154 C1.255,10.406 0,12.555 0,15 C0,18.866 3.134,22 7,22 C9.445,22 11.594,20.745 12.846,18.846 C11.742,19.573 10.421,20 9,20 L9,20 Z M67,11 C63.134,11 60,7.866 60,4 C60,2.579 60.427,1.258 61.154,0.154 C59.255,1.406 58,3.555 58,6 C58,9.866 61.134,13 65,13 C67.445,13 69.594,11.745 70.846,9.846 C69.742,10.574 68.422,11 67,11 L67,11 Z" id="Shape"></path>
            </g>
            <path d="M14.895,52.419 L12.553,53.731 C13.617,56.24 16.103,58 19,58 C21.445,58 23.594,56.745 24.846,54.846 C23.742,55.573 22.421,56 21,56 C18.376,56 16.093,54.555 14.895,52.419 L14.895,52.419 Z M53.846,67.846 C52.742,68.573 51.422,69 50,69 C46.134,69 43,65.866 43,62 C43,60.868 43.279,59.807 43.757,58.861 L43.421,58.715 C41.94,59.998 41,61.887 41,64 C41,67.866 44.134,71 48,71 C50.445,71 52.594,69.745 53.846,67.846 L53.846,67.846 Z M73.196,43.915 L71.045,45.667 C72.278,47.664 74.48,49 77,49 C79.445,49 81.594,47.745 82.846,45.846 C81.742,46.574 80.422,47 79,47 C76.584,47 74.454,45.776 73.196,43.915 L73.196,43.915 Z" id="Shape" fill="#2980B9" sketch:type="MSShapeGroup"></path>
            <g id="Group" transform="translate(1.000000, 33.000000)" fill="#F2F1EF" sketch:type="MSShapeGroup">
                <path d="M51.043,30.637 L77.457,9.487 L74.957,6.365 L49.257,26.943 L20.764,15.153 L20.234,16.434 L19.047,14.242 L-0.396,24.773 C-0.179,26.161 0.102,27.527 0.43,28.874 L19.32,18.643 L19.235,18.848 L48.235,30.848 L49.25,28.397 L51.043,30.637 L51.043,30.637 Z M95.896,-0.368 L76.46,5.074 L77.538,8.926 L97.123,3.443 C96.762,2.151 96.358,0.878 95.896,-0.368 L95.896,-0.368 Z" id="Shape"></path>
            </g>
            <path d="M21,42 C17.134,42 14,45.134 14,49 C14,52.866 17.134,56 21,56 C24.866,56 28,52.866 28,49 C28,45.134 24.866,42 21,42 L21,42 Z M50,55 C46.134,55 43,58.134 43,62 C43,65.866 46.134,69 50,69 C53.866,69 57,65.866 57,62 C57,58.134 53.866,55 50,55 L50,55 Z M79,33 C75.134,33 72,36.134 72,40 C72,43.866 75.134,47 79,47 C82.866,47 86,43.866 86,40 C86,36.134 82.866,33 79,33 L79,33 Z" id="Shape" fill="#FFFFFF" sketch:type="MSShapeGroup"></path>
            <path d="M21,46 C19.343,46 18,47.343 18,49 C18,50.657 19.343,52 21,52 C22.657,52 24,50.657 24,49 C24,47.343 22.657,46 21,46 L21,46 Z M50,59 C48.343,59 47,60.343 47,62 C47,63.657 48.343,65 50,65 C51.656,65 53,63.657 53,62 C53,60.343 51.656,59 50,59 L50,59 Z M79,37 C77.344,37 76,38.343 76,40 C76,41.657 77.344,43 79,43 C80.656,43 82,41.657 82,40 C82,38.343 80.656,37 79,37 L79,37 Z" id="Shape" fill="#2980B9" sketch:type="MSShapeGroup"></path>
            <g id="Group" transform="translate(12.000000, 42.000000)" fill="#D9D8D7" sketch:type="MSShapeGroup">
                <path d="M0.029,9.584 C0.146,10.994 0.68,12.283 1.508,13.332 L4.054,11.953 C3.108,11.009 2.432,9.795 2.149,8.436 L0.029,9.584 L0.029,9.584 Z M29.798,18.771 L31.052,19.29 C31.17,18.142 31.549,17.071 32.154,16.155 C31.162,16.809 30.352,17.712 29.798,18.771 L29.798,18.771 Z M60.371,0.235 L58.272,1.916 C58.652,3.252 59.416,4.423 60.44,5.304 L62.686,3.506 C61.625,2.672 60.812,1.542 60.371,0.235 L60.371,0.235 Z" id="Shape"></path>
            </g>
            <path d="M20,55.927 L20,57.924 C20.708,57.821 21.377,57.608 22,57.311 L22,55.926 C21.673,55.973 21.34,56 21,56 C20.66,56 20.327,55.974 20,55.927 L20,55.927 Z M49,70.924 C49.708,70.821 50.377,70.608 51,70.311 L51,68.926 C50.673,68.973 50.34,69 50,69 C49.66,69 49.328,68.968 49,68.921 L49,70.924 L49,70.924 Z M78,48.923 C78.708,48.821 79.377,48.608 80,48.31 L80,46.925 C79.673,46.973 79.34,47 79,47 C78.66,47 78.327,46.97 78,46.923 L78,48.923 L78,48.923 Z" id="Shape" fill="#2575A9" sketch:type="MSShapeGroup"></path>
        </g>
    </g>
</svg>