<?xml version="1.0" encoding="UTF-8" standalone="no"?>
<svg width="800px" height="580px" viewBox="0 0 800 580" version="1.1" xmlns="http://www.w3.org/2000/svg" xmlns:xlink="http://www.w3.org/1999/xlink" xmlns:sketch="http://www.bohemiancoding.com/sketch/ns">
    <!-- Generator: Sketch 3.1.1 (8761) - http://www.bohemiancoding.com/sketch -->
    <title>herounit</title>
    <desc>Created with Sketch.</desc>
    <defs></defs>
    <g id="Page-1" stroke="none" stroke-width="1" fill="none" fill-rule="evenodd" sketch:type="MSPage">
        <g id="herounit" sketch:type="MSLayerGroup" transform="translate(0.000000, 1.000000)">
            <g id="Page-1" sketch:type="MSShapeGroup">
                <g id="herounit">
                    <g id="Page-1">
                        <g id="herounit">
                            <g id="Group">
                                <path d="M741.1,148 C736.4,158.6 723.1,167.2 711.6,167.2 L88.4,167.2 C76.8,167.2 63.6,158.5 58.9,148 L1.8,18.9 C-2.9,8.3 2.8,-0.3 14.3,-0.3 L785.6,-0.3 C797.2,-0.3 802.8,8.3 798.1,18.9 L741.1,148 L741.1,148 Z" id="Shape" fill="#FFFFFF"></path>
                                <path d="M741.1,155.1 C736.4,165.7 723.1,174.3 711.6,174.3 L88.4,174.3 C76.8,174.3 63.6,165.7 58.9,155.1 L1.8,25.9 C-2.9,15.3 2.8,6.7 14.3,6.7 L785.6,6.7 C797.2,6.7 802.8,15.4 798.1,25.9 L741.1,155.1 L741.1,155.1 Z" id="Shape" fill="#252328"></path>
                                <path d="M689.7,159.9 C688.9,161.6 686.6,163.1 684.7,163.1 L115.3,163.1 C113.4,163.1 111.1,161.7 110.3,159.9 L49.1,28.1 C48.3,26.4 49.2,24.9 51.1,24.9 L748.9,24.9 C750.8,24.9 751.7,26.3 750.9,28.1 L689.7,159.9 L689.7,159.9 Z" id="Shape" fill="#FFFFFF"></path>
                                <path d="M729.2,557.3 C729.2,568.9 719.7,578.3 708.2,578.3 L91.8,578.3 C80.2,578.3 70.8,568.8 70.8,557.3 L70.8,202.3 C70.8,190.7 80.3,181.3 91.8,181.3 L708.2,181.3 C719.8,181.3 729.2,190.8 729.2,202.3 L729.2,557.3 L729.2,557.3 Z" id="Shape" fill="#CCCBCB"></path>
                                <path d="M729.2,550.3 C729.2,561.9 719.7,571.3 708.2,571.3 L91.8,571.3 C80.2,571.3 70.8,561.8 70.8,550.3 L70.8,195.3 C70.8,183.7 80.3,174.3 91.8,174.3 L708.2,174.3 C719.8,174.3 729.2,183.8 729.2,195.3 L729.2,550.3 L729.2,550.3 Z" id="Shape" fill="#FFFFFF"></path>
                                <g id="Shape" transform="translate(113.000000, 224.000000)">
                                    <path d="M42.2,164.9 C42.2,168.5 39.2,171.5 35.6,171.5 L6.5,171.5 C2.8,171.5 -0.1,168.5 -0.1,164.9 L-0.1,141 C-0.1,137.4 2.9,134.4 6.5,134.4 L35.6,134.4 C39.2,134.4 42.2,137.4 42.2,141 L42.2,164.9 L42.2,164.9 Z" fill="#221F1F"></path>
                                    <path d="M95.4,164.9 C95.4,168.5 92.4,171.5 88.8,171.5 L59.7,171.5 C56,171.5 53.1,168.5 53.1,164.9 L53.1,141 C53.1,137.4 56.1,134.4 59.7,134.4 L88.8,134.4 C92.4,134.4 95.4,137.4 95.4,141 L95.4,164.9 L95.4,164.9 Z" fill="#221F1F"></path>
                                    <path d="M467.7,164.9 C467.7,168.5 464.7,171.5 461.1,171.5 L112.9,171.5 C109.3,171.5 106.3,168.5 106.3,164.9 L106.3,141 C106.3,137.4 109.3,134.4 112.9,134.4 L461.1,134.4 C464.7,134.4 467.7,137.4 467.7,141 L467.7,164.9 L467.7,164.9 Z" fill="#221F1F"></path>
                                    <path d="M520.9,164.9 C520.9,168.5 517.9,171.5 514.3,171.5 L485.2,171.5 C481.5,171.5 478.6,168.5 478.6,164.9 L478.6,141 C478.6,137.4 481.6,134.4 485.2,134.4 L514.3,134.4 C517.9,134.4 520.9,137.4 520.9,141 L520.9,164.9 L520.9,164.9 Z" fill="#221F1F"></path>
                                    <path d="M574.1,164.9 C574.1,168.5 571.1,171.5 567.5,171.5 L538.4,171.5 C534.8,171.5 531.8,168.5 531.8,164.9 L531.8,141 C531.8,137.4 534.8,134.4 538.4,134.4 L567.5,134.4 C571.1,134.4 574.1,137.4 574.1,141 L574.1,164.9 L574.1,164.9 Z" fill="#221F1F"></path>
                                    <path d="M42.2,160.5 C42.2,164.1 39.2,167.1 35.6,167.1 L6.5,167.1 C2.8,167.1 -0.1,164.1 -0.1,160.5 L-0.1,136.6 C-0.1,133 2.9,130 6.5,130 L35.6,130 C39.2,130 42.2,133 42.2,136.6 L42.2,160.5 L42.2,160.5 Z" fill="#252328"></path>
                                    <path d="M95.4,160.5 C95.4,164.1 92.4,167.1 88.8,167.1 L59.7,167.1 C56,167.1 53.1,164.1 53.1,160.5 L53.1,136.6 C53.1,133 56.1,130 59.7,130 L88.8,130 C92.4,130 95.4,133 95.4,136.6 L95.4,160.5 L95.4,160.5 Z" fill="#252328"></path>
                                    <path d="M467.7,160.5 C467.7,164.1 464.7,167.1 461.1,167.1 L112.9,167.1 C109.3,167.1 106.3,164.1 106.3,160.5 L106.3,136.6 C106.3,133 109.3,130 112.9,130 L461.1,130 C464.7,130 467.7,133 467.7,136.6 L467.7,160.5 L467.7,160.5 Z" fill="#252328"></path>
                                    <path d="M520.9,160.5 C520.9,164.1 517.9,167.1 514.3,167.1 L485.2,167.1 C481.5,167.1 478.6,164.1 478.6,160.5 L478.6,136.6 C478.6,133 481.6,130 485.2,130 L514.3,130 C517.9,130 520.9,133 520.9,136.6 L520.9,160.5 L520.9,160.5 Z" fill="#252328"></path>
                                    <path d="M574.1,160.5 C574.1,164.1 571.1,167.1 567.5,167.1 L538.4,167.1 C534.8,167.1 531.8,164.1 531.8,160.5 L531.8,136.6 C531.8,133 534.8,130 538.4,130 L567.5,130 C571.1,130 574.1,133 574.1,136.6 L574.1,160.5 L574.1,160.5 Z" fill="#252328"></path>
                                    <g id="Group" transform="translate(0.000000, 4.000000)" fill="#221F1F">
                                        <path d="M42.2,18.7 C42.2,22.3 39.2,25.3 35.6,25.3 L6.5,25.3 C2.8,25.3 -0.1,22.3 -0.1,18.7 L-0.1,6.9 C-0.1,3.3 2.9,0.3 6.5,0.3 L35.6,0.3 C39.2,0.3 42.2,3.3 42.2,6.9 L42.2,18.7 L42.2,18.7 Z" id="Shape"></path>
                                        <path d="M95.4,18.7 C95.4,22.3 92.4,25.3 88.8,25.3 L59.7,25.3 C56.1,25.3 53.1,22.3 53.1,18.7 L53.1,6.9 C53.1,3.3 56.1,0.3 59.7,0.3 L88.8,0.3 C92.4,0.3 95.4,3.3 95.4,6.9 L95.4,18.7 L95.4,18.7 Z" id="Shape"></path>
                                        <path d="M148.6,18.7 C148.6,22.3 145.6,25.3 142,25.3 L112.9,25.3 C109.3,25.3 106.3,22.3 106.3,18.7 L106.3,6.9 C106.3,3.3 109.3,0.3 112.9,0.3 L142,0.3 C145.6,0.3 148.6,3.3 148.6,6.9 L148.6,18.7 L148.6,18.7 Z" id="Shape"></path>
                                        <path d="M201.8,18.7 C201.8,22.3 198.8,25.3 195.2,25.3 L166.1,25.3 C162.5,25.3 159.5,22.3 159.5,18.7 L159.5,6.9 C159.5,3.3 162.5,0.3 166.1,0.3 L195.2,0.3 C198.8,0.3 201.8,3.3 201.8,6.9 L201.8,18.7 L201.8,18.7 Z" id="Shape"></path>
                                        <path d="M255.1,18.7 C255.1,22.3 252.1,25.3 248.5,25.3 L219.4,25.3 C215.8,25.3 212.8,22.3 212.8,18.7 L212.8,6.9 C212.8,3.3 215.8,0.3 219.4,0.3 L248.5,0.3 C252.1,0.3 255.1,3.3 255.1,6.9 L255.1,18.7 L255.1,18.7 Z" id="Shape"></path>
                                        <path d="M308.3,18.7 C308.3,22.3 305.3,25.3 301.7,25.3 L272.6,25.3 C269,25.3 266,22.3 266,18.7 L266,6.9 C266,3.3 269,0.3 272.6,0.3 L301.7,0.3 C305.4,0.3 308.3,3.3 308.3,6.9 L308.3,18.7 L308.3,18.7 Z" id="Shape"></path>
                                        <path d="M361.5,18.7 C361.5,22.3 358.5,25.3 354.9,25.3 L325.8,25.3 C322.2,25.3 319.2,22.3 319.2,18.7 L319.2,6.9 C319.2,3.3 322.2,0.3 325.8,0.3 L354.9,0.3 C358.5,0.3 361.5,3.3 361.5,6.9 L361.5,18.7 L361.5,18.7 Z" id="Shape"></path>
                                        <path d="M414.7,18.7 C414.7,22.3 411.7,25.3 408.1,25.3 L379,25.3 C375.4,25.3 372.4,22.3 372.4,18.7 L372.4,6.9 C372.4,3.3 375.4,0.3 379,0.3 L408.1,0.3 C411.7,0.3 414.7,3.3 414.7,6.9 L414.7,18.7 L414.7,18.7 Z" id="Shape"></path>
                                        <path d="M467.9,18.7 C467.9,22.3 464.9,25.3 461.3,25.3 L432.2,25.3 C428.6,25.3 425.6,22.3 425.6,18.7 L425.6,6.9 C425.6,3.3 428.6,0.3 432.2,0.3 L461.3,0.3 C464.9,0.3 467.9,3.3 467.9,6.9 L467.9,18.7 L467.9,18.7 Z" id="Shape"></path>
                                        <path d="M520.9,18.7 C520.9,22.3 517.9,25.3 514.3,25.3 L485.2,25.3 C481.6,25.3 478.6,22.3 478.6,18.7 L478.6,6.9 C478.6,3.3 481.6,0.3 485.2,0.3 L514.3,0.3 C517.9,0.3 520.9,3.3 520.9,6.9 L520.9,18.7 L520.9,18.7 Z" id="Shape"></path>
                                        <path d="M574.1,18.7 C574.1,22.3 571.1,25.3 567.5,25.3 L538.4,25.3 C534.8,25.3 531.8,22.3 531.8,18.7 L531.8,6.9 C531.8,3.3 534.8,0.3 538.4,0.3 L567.5,0.3 C571.1,0.3 574.1,3.3 574.1,6.9 L574.1,18.7 L574.1,18.7 Z" id="Shape"></path>
                                    </g>
                                    <g id="Group" fill="#252328">
                                        <path d="M42.2,18.2 C42.2,21.8 39.2,24.8 35.6,24.8 L6.5,24.8 C2.8,24.8 -0.1,21.8 -0.1,18.2 L-0.1,6.4 C-0.1,2.8 2.9,-0.2 6.5,-0.2 L35.6,-0.2 C39.2,-0.2 42.2,2.8 42.2,6.4 L42.2,18.2 L42.2,18.2 Z" id="Shape"></path>
                                        <path d="M95.4,18.2 C95.4,21.8 92.4,24.8 88.8,24.8 L59.7,24.8 C56,24.8 53.1,21.8 53.1,18.2 L53.1,6.4 C53.1,2.8 56.1,-0.2 59.7,-0.2 L88.8,-0.2 C92.4,-0.2 95.4,2.8 95.4,6.4 L95.4,18.2 L95.4,18.2 Z" id="Shape"></path>
                                        <path d="M148.6,18.2 C148.6,21.8 145.6,24.8 142,24.8 L112.9,24.8 C109.3,24.8 106.3,21.8 106.3,18.2 L106.3,6.4 C106.3,2.8 109.3,-0.2 112.9,-0.2 L142,-0.2 C145.6,-0.2 148.6,2.8 148.6,6.4 L148.6,18.2 L148.6,18.2 Z" id="Shape"></path>
                                        <path d="M201.8,18.2 C201.8,21.8 198.8,24.8 195.2,24.8 L166.1,24.8 C162.5,24.8 159.5,21.8 159.5,18.2 L159.5,6.4 C159.5,2.8 162.5,-0.2 166.1,-0.2 L195.2,-0.2 C198.8,-0.2 201.8,2.8 201.8,6.4 L201.8,18.2 L201.8,18.2 Z" id="Shape"></path>
                                        <path d="M255.1,18.2 C255.1,21.8 252.1,24.8 248.5,24.8 L219.4,24.8 C215.8,24.8 212.8,21.8 212.8,18.2 L212.8,6.4 C212.8,2.8 215.8,-0.2 219.4,-0.2 L248.5,-0.2 C252.1,-0.2 255.1,2.8 255.1,6.4 L255.1,18.2 L255.1,18.2 Z" id="Shape"></path>
                                        <path d="M308.3,18.2 C308.3,21.8 305.3,24.8 301.7,24.8 L272.6,24.8 C269,24.8 266,21.8 266,18.2 L266,6.4 C266,2.8 269,-0.2 272.6,-0.2 L301.7,-0.2 C305.3,-0.2 308.3,2.8 308.3,6.4 L308.3,18.2 L308.3,18.2 Z" id="Shape"></path>
                                        <path d="M361.5,18.2 C361.5,21.8 358.5,24.8 354.9,24.8 L325.8,24.8 C322.2,24.8 319.2,21.8 319.2,18.2 L319.2,6.4 C319.2,2.8 322.2,-0.2 325.8,-0.2 L354.9,-0.2 C358.5,-0.2 361.5,2.8 361.5,6.4 L361.5,18.2 L361.5,18.2 Z" id="Shape"></path>
                                        <path d="M414.7,18.2 C414.7,21.8 411.7,24.8 408.1,24.8 L379,24.8 C375.4,24.8 372.4,21.8 372.4,18.2 L372.4,6.4 C372.4,2.8 375.4,-0.2 379,-0.2 L408.1,-0.2 C411.7,-0.2 414.7,2.8 414.7,6.4 L414.7,18.2 L414.7,18.2 Z" id="Shape"></path>
                                        <path d="M467.9,18.2 C467.9,21.8 464.9,24.8 461.3,24.8 L432.2,24.8 C428.6,24.8 425.6,21.8 425.6,18.2 L425.6,6.4 C425.6,2.8 428.6,-0.2 432.2,-0.2 L461.3,-0.2 C464.9,-0.2 467.9,2.8 467.9,6.4 L467.9,18.2 L467.9,18.2 Z" id="Shape"></path>
                                        <path d="M520.9,18.2 C520.9,21.8 517.9,24.8 514.3,24.8 L485.2,24.8 C481.5,24.8 478.6,21.8 478.6,18.2 L478.6,6.4 C478.6,2.8 481.6,-0.2 485.2,-0.2 L514.3,-0.2 C517.9,-0.2 520.9,2.8 520.9,6.4 L520.9,18.2 L520.9,18.2 Z" id="Shape"></path>
                                        <path d="M574.1,18.2 C574.1,21.8 571.1,24.8 567.5,24.8 L538.4,24.8 C534.8,24.8 531.8,21.8 531.8,18.2 L531.8,6.4 C531.8,2.8 534.8,-0.2 538.4,-0.2 L567.5,-0.2 C571.1,-0.2 574.1,2.8 574.1,6.4 L574.1,18.2 L574.1,18.2 Z" id="Shape"></path>
                                    </g>
                                    <g id="Group" transform="translate(0.000000, 39.000000)" fill="#221F1F">
                                        <path d="M42.2,30.8 C42.2,34.4 39.2,37.4 35.6,37.4 L6.5,37.4 C2.8,37.4 -0.1,34.4 -0.1,30.8 L-0.1,6.9 C-0.1,3.3 2.9,0.3 6.5,0.3 L35.6,0.3 C39.2,0.3 42.2,3.3 42.2,6.9 L42.2,30.8 L42.2,30.8 Z" id="Shape"></path>
                                        <path d="M95.4,30.8 C95.4,34.4 92.4,37.4 88.8,37.4 L59.7,37.4 C56.1,37.4 53.1,34.4 53.1,30.8 L53.1,6.9 C53.1,3.3 56.1,0.3 59.7,0.3 L88.8,0.3 C92.4,0.3 95.4,3.3 95.4,6.9 L95.4,30.8 L95.4,30.8 Z" id="Shape"></path>
                                        <path d="M148.6,30.8 C148.6,34.4 145.6,37.4 142,37.4 L112.9,37.4 C109.3,37.4 106.3,34.4 106.3,30.8 L106.3,6.9 C106.3,3.3 109.3,0.3 112.9,0.3 L142,0.3 C145.6,0.3 148.6,3.3 148.6,6.9 L148.6,30.8 L148.6,30.8 Z" id="Shape"></path>
                                        <path d="M201.8,30.8 C201.8,34.4 198.8,37.4 195.2,37.4 L166.1,37.4 C162.5,37.4 159.5,34.4 159.5,30.8 L159.5,6.9 C159.5,3.3 162.5,0.3 166.1,0.3 L195.2,0.3 C198.8,0.3 201.8,3.3 201.8,6.9 L201.8,30.8 L201.8,30.8 Z" id="Shape"></path>
                                        <path d="M255.1,30.8 C255.1,34.4 252.1,37.4 248.5,37.4 L219.4,37.4 C215.8,37.4 212.8,34.4 212.8,30.8 L212.8,6.9 C212.8,3.3 215.8,0.3 219.4,0.3 L248.5,0.3 C252.1,0.3 255.1,3.3 255.1,6.9 L255.1,30.8 L255.1,30.8 Z" id="Shape"></path>
                                        <path d="M308.3,30.8 C308.3,34.4 305.3,37.4 301.7,37.4 L272.6,37.4 C269,37.4 266,34.4 266,30.8 L266,6.9 C266,3.3 269,0.3 272.6,0.3 L301.7,0.3 C305.4,0.3 308.3,3.3 308.3,6.9 L308.3,30.8 L308.3,30.8 Z" id="Shape"></path>
                                        <path d="M361.5,30.8 C361.5,34.4 358.5,37.4 354.9,37.4 L325.8,37.4 C322.2,37.4 319.2,34.4 319.2,30.8 L319.2,6.9 C319.2,3.3 322.2,0.3 325.8,0.3 L354.9,0.3 C358.5,0.3 361.5,3.3 361.5,6.9 L361.5,30.8 L361.5,30.8 Z" id="Shape"></path>
                                        <path d="M414.7,30.8 C414.7,34.4 411.7,37.4 408.1,37.4 L379,37.4 C375.4,37.4 372.4,34.4 372.4,30.8 L372.4,6.9 C372.4,3.3 375.4,0.3 379,0.3 L408.1,0.3 C411.7,0.3 414.7,3.3 414.7,6.9 L414.7,30.8 L414.7,30.8 Z" id="Shape"></path>
                                        <path d="M467.9,30.8 C467.9,34.4 464.9,37.4 461.3,37.4 L432.2,37.4 C428.6,37.4 425.6,34.4 425.6,30.8 L425.6,6.9 C425.6,3.3 428.6,0.3 432.2,0.3 L461.3,0.3 C464.9,0.3 467.9,3.3 467.9,6.9 L467.9,30.8 L467.9,30.8 Z" id="Shape"></path>
                                        <path d="M520.9,30.8 C520.9,34.4 517.9,37.4 514.3,37.4 L485.2,37.4 C481.6,37.4 478.6,34.4 478.6,30.8 L478.6,6.9 C478.6,3.3 481.6,0.3 485.2,0.3 L514.3,0.3 C517.9,0.3 520.9,3.3 520.9,6.9 L520.9,30.8 L520.9,30.8 Z" id="Shape"></path>
                                        <path d="M574.1,30.8 C574.1,34.4 571.1,37.4 567.5,37.4 L538.4,37.4 C534.8,37.4 531.8,34.4 531.8,30.8 L531.8,6.9 C531.8,3.3 534.8,0.3 538.4,0.3 L567.5,0.3 C571.1,0.3 574.1,3.3 574.1,6.9 L574.1,30.8 L574.1,30.8 Z" id="Shape"></path>
                                    </g>
                                    <g id="Group" transform="translate(0.000000, 35.000000)" fill="#252328">
                                        <path d="M42.2,30.4 C42.2,34 39.2,37 35.6,37 L6.5,37 C2.8,37 -0.1,34 -0.1,30.4 L-0.1,6.5 C-0.1,2.9 2.9,-0.1 6.5,-0.1 L35.6,-0.1 C39.2,-0.1 42.2,2.9 42.2,6.5 L42.2,30.4 L42.2,30.4 Z" id="Shape"></path>
                                        <path d="M95.4,30.4 C95.4,34 92.4,37 88.8,37 L59.7,37 C56,37 53.1,34 53.1,30.4 L53.1,6.5 C53.1,2.9 56.1,-0.1 59.7,-0.1 L88.8,-0.1 C92.4,-0.1 95.4,2.9 95.4,6.5 L95.4,30.4 L95.4,30.4 Z" id="Shape"></path>
                                        <path d="M148.6,30.4 C148.6,34 145.6,37 142,37 L112.9,37 C109.3,37 106.3,34 106.3,30.4 L106.3,6.5 C106.3,2.9 109.3,-0.1 112.9,-0.1 L142,-0.1 C145.6,-0.1 148.6,2.9 148.6,6.5 L148.6,30.4 L148.6,30.4 Z" id="Shape"></path>
                                        <path d="M201.8,30.4 C201.8,34 198.8,37 195.2,37 L166.1,37 C162.5,37 159.5,34 159.5,30.4 L159.5,6.5 C159.5,2.9 162.5,-0.1 166.1,-0.1 L195.2,-0.1 C198.8,-0.1 201.8,2.9 201.8,6.5 L201.8,30.4 L201.8,30.4 Z" id="Shape"></path>
                                        <path d="M255.1,30.4 C255.1,34 252.1,37 248.5,37 L219.4,37 C215.8,37 212.8,34 212.8,30.4 L212.8,6.5 C212.8,2.9 215.8,-0.1 219.4,-0.1 L248.5,-0.1 C252.1,-0.1 255.1,2.9 255.1,6.5 L255.1,30.4 L255.1,30.4 Z" id="Shape"></path>
                                        <path d="M308.3,30.4 C308.3,34 305.3,37 301.7,37 L272.6,37 C269,37 266,34 266,30.4 L266,6.5 C266,2.9 269,-0.1 272.6,-0.1 L301.7,-0.1 C305.3,-0.1 308.3,2.9 308.3,6.5 L308.3,30.4 L308.3,30.4 Z" id="Shape"></path>
                                        <path d="M361.5,30.4 C361.5,34 358.5,37 354.9,37 L325.8,37 C322.2,37 319.2,34 319.2,30.4 L319.2,6.5 C319.2,2.9 322.2,-0.1 325.8,-0.1 L354.9,-0.1 C358.5,-0.1 361.5,2.9 361.5,6.5 L361.5,30.4 L361.5,30.4 Z" id="Shape"></path>
                                        <path d="M414.7,30.4 C414.7,34 411.7,37 408.1,37 L379,37 C375.4,37 372.4,34 372.4,30.4 L372.4,6.5 C372.4,2.9 375.4,-0.1 379,-0.1 L408.1,-0.1 C411.7,-0.1 414.7,2.9 414.7,6.5 L414.7,30.4 L414.7,30.4 Z" id="Shape"></path>
                                        <path d="M467.9,30.4 C467.9,34 464.9,37 461.3,37 L432.2,37 C428.6,37 425.6,34 425.6,30.4 L425.6,6.5 C425.6,2.9 428.6,-0.1 432.2,-0.1 L461.3,-0.1 C464.9,-0.1 467.9,2.9 467.9,6.5 L467.9,30.4 L467.9,30.4 Z" id="Shape"></path>
                                        <path d="M520.9,30.4 C520.9,34 517.9,37 514.3,37 L485.2,37 C481.5,37 478.6,34 478.6,30.4 L478.6,6.5 C478.6,2.9 481.6,-0.1 485.2,-0.1 L514.3,-0.1 C517.9,-0.1 520.9,2.9 520.9,6.5 L520.9,30.4 L520.9,30.4 Z" id="Shape"></path>
                                        <path d="M574.1,30.4 C574.1,34 571.1,37 567.5,37 L538.4,37 C534.8,37 531.8,34 531.8,30.4 L531.8,6.5 C531.8,2.9 534.8,-0.1 538.4,-0.1 L567.5,-0.1 C571.1,-0.1 574.1,2.9 574.1,6.5 L574.1,30.4 L574.1,30.4 Z" id="Shape"></path>
                                    </g>
                                    <g id="Group" transform="translate(0.000000, 87.000000)" fill="#221F1F">
                                        <path d="M42.2,30.3 C42.2,33.9 39.2,36.9 35.6,36.9 L6.5,36.9 C2.8,36.9 -0.1,33.9 -0.1,30.3 L-0.1,6.4 C-0.1,2.8 2.9,-0.2 6.5,-0.2 L35.6,-0.2 C39.2,-0.2 42.2,2.8 42.2,6.4 L42.2,30.3 L42.2,30.3 Z" id="Shape"></path>
                                        <path d="M95.4,30.3 C95.4,33.9 92.4,36.9 88.8,36.9 L59.7,36.9 C56.1,36.9 53.1,33.9 53.1,30.3 L53.1,6.4 C53.1,2.8 56.1,-0.2 59.7,-0.2 L88.8,-0.2 C92.4,-0.2 95.4,2.8 95.4,6.4 L95.4,30.3 L95.4,30.3 Z" id="Shape"></path>
                                        <path d="M148.6,30.3 C148.6,33.9 145.6,36.9 142,36.9 L112.9,36.9 C109.3,36.9 106.3,33.9 106.3,30.3 L106.3,6.4 C106.3,2.8 109.3,-0.2 112.9,-0.2 L142,-0.2 C145.6,-0.2 148.6,2.8 148.6,6.4 L148.6,30.3 L148.6,30.3 Z" id="Shape"></path>
                                        <path d="M201.8,30.3 C201.8,33.9 198.8,36.9 195.2,36.9 L166.1,36.9 C162.5,36.9 159.5,33.9 159.5,30.3 L159.5,6.4 C159.5,2.8 162.5,-0.2 166.1,-0.2 L195.2,-0.2 C198.8,-0.2 201.8,2.8 201.8,6.4 L201.8,30.3 L201.8,30.3 Z" id="Shape"></path>
                                        <path d="M255.1,30.3 C255.1,33.9 252.1,36.9 248.5,36.9 L219.4,36.9 C215.8,36.9 212.8,33.9 212.8,30.3 L212.8,6.4 C212.8,2.8 215.8,-0.2 219.4,-0.2 L248.5,-0.2 C252.1,-0.2 255.1,2.8 255.1,6.4 L255.1,30.3 L255.1,30.3 Z" id="Shape"></path>
                                        <path d="M308.3,30.3 C308.3,33.9 305.3,36.9 301.7,36.9 L272.6,36.9 C269,36.9 266,33.9 266,30.3 L266,6.4 C266,2.8 269,-0.2 272.6,-0.2 L301.7,-0.2 C305.4,-0.2 308.3,2.8 308.3,6.4 L308.3,30.3 L308.3,30.3 Z" id="Shape"></path>
                                        <path d="M361.5,30.3 C361.5,33.9 358.5,36.9 354.9,36.9 L325.8,36.9 C322.2,36.9 319.2,33.9 319.2,30.3 L319.2,6.4 C319.2,2.8 322.2,-0.2 325.8,-0.2 L354.9,-0.2 C358.5,-0.2 361.5,2.8 361.5,6.4 L361.5,30.3 L361.5,30.3 Z" id="Shape"></path>
                                        <path d="M414.7,30.3 C414.7,33.9 411.7,36.9 408.1,36.9 L379,36.9 C375.4,36.9 372.4,33.9 372.4,30.3 L372.4,6.4 C372.4,2.8 375.4,-0.2 379,-0.2 L408.1,-0.2 C411.7,-0.2 414.7,2.8 414.7,6.4 L414.7,30.3 L414.7,30.3 Z" id="Shape"></path>
                                        <path d="M467.9,30.3 C467.9,33.9 464.9,36.9 461.3,36.9 L432.2,36.9 C428.6,36.9 425.6,33.9 425.6,30.3 L425.6,6.4 C425.6,2.8 428.6,-0.2 432.2,-0.2 L461.3,-0.2 C464.9,-0.2 467.9,2.8 467.9,6.4 L467.9,30.3 L467.9,30.3 Z" id="Shape"></path>
                                        <path d="M520.9,30.3 C520.9,33.9 517.9,36.9 514.3,36.9 L485.2,36.9 C481.6,36.9 478.6,33.9 478.6,30.3 L478.6,6.4 C478.6,2.8 481.6,-0.2 485.2,-0.2 L514.3,-0.2 C517.9,-0.2 520.9,2.8 520.9,6.4 L520.9,30.3 L520.9,30.3 Z" id="Shape"></path>
                                        <path d="M574.1,30.3 C574.1,33.9 571.1,36.9 567.5,36.9 L538.4,36.9 C534.8,36.9 531.8,33.9 531.8,30.3 L531.8,6.4 C531.8,2.8 534.8,-0.2 538.4,-0.2 L567.5,-0.2 C571.1,-0.2 574.1,2.8 574.1,6.4 L574.1,30.3 L574.1,30.3 Z" id="Shape"></path>
                                    </g>
                                    <g id="Group" transform="translate(0.000000, 82.000000)" fill="#252328">
                                        <path d="M42.2,30.9 C42.2,34.5 39.2,37.5 35.6,37.5 L6.5,37.5 C2.8,37.5 -0.1,34.5 -0.1,30.9 L-0.1,7 C-0.1,3.4 2.9,0.4 6.5,0.4 L35.6,0.4 C39.2,0.4 42.2,3.4 42.2,7 L42.2,30.9 L42.2,30.9 Z" id="Shape"></path>
                                        <path d="M95.4,30.9 C95.4,34.5 92.4,37.5 88.8,37.5 L59.7,37.5 C56,37.5 53.1,34.5 53.1,30.9 L53.1,7 C53.1,3.4 56.1,0.4 59.7,0.4 L88.8,0.4 C92.4,0.4 95.4,3.4 95.4,7 L95.4,30.9 L95.4,30.9 Z" id="Shape"></path>
                                        <path d="M148.6,30.9 C148.6,34.5 145.6,37.5 142,37.5 L112.9,37.5 C109.3,37.5 106.3,34.5 106.3,30.9 L106.3,7 C106.3,3.4 109.3,0.4 112.9,0.4 L142,0.4 C145.6,0.4 148.6,3.4 148.6,7 L148.6,30.9 L148.6,30.9 Z" id="Shape"></path>
                                        <path d="M201.8,30.9 C201.8,34.5 198.8,37.5 195.2,37.5 L166.1,37.5 C162.5,37.5 159.5,34.5 159.5,30.9 L159.5,7 C159.5,3.4 162.5,0.4 166.1,0.4 L195.2,0.4 C198.8,0.4 201.8,3.4 201.8,7 L201.8,30.9 L201.8,30.9 Z" id="Shape"></path>
                                        <path d="M255.1,30.9 C255.1,34.5 252.1,37.5 248.5,37.5 L219.4,37.5 C215.8,37.5 212.8,34.5 212.8,30.9 L212.8,7 C212.8,3.4 215.8,0.4 219.4,0.4 L248.5,0.4 C252.1,0.4 255.1,3.4 255.1,7 L255.1,30.9 L255.1,30.9 Z" id="Shape"></path>
                                        <path d="M308.3,30.9 C308.3,34.5 305.3,37.5 301.7,37.5 L272.6,37.5 C269,37.5 266,34.5 266,30.9 L266,7 C266,3.4 269,0.4 272.6,0.4 L301.7,0.4 C305.3,0.4 308.3,3.4 308.3,7 L308.3,30.9 L308.3,30.9 Z" id="Shape"></path>
                                        <path d="M361.5,30.9 C361.5,34.5 358.5,37.5 354.9,37.5 L325.8,37.5 C322.2,37.5 319.2,34.5 319.2,30.9 L319.2,7 C319.2,3.4 322.2,0.4 325.8,0.4 L354.9,0.4 C358.5,0.4 361.5,3.4 361.5,7 L361.5,30.9 L361.5,30.9 Z" id="Shape"></path>
                                        <path d="M414.7,30.9 C414.7,34.5 411.7,37.5 408.1,37.5 L379,37.5 C375.4,37.5 372.4,34.5 372.4,30.9 L372.4,7 C372.4,3.4 375.4,0.4 379,0.4 L408.1,0.4 C411.7,0.4 414.7,3.4 414.7,7 L414.7,30.9 L414.7,30.9 Z" id="Shape"></path>
                                        <path d="M467.9,30.9 C467.9,34.5 464.9,37.5 461.3,37.5 L432.2,37.5 C428.6,37.5 425.6,34.5 425.6,30.9 L425.6,7 C425.6,3.4 428.6,0.4 432.2,0.4 L461.3,0.4 C464.9,0.4 467.9,3.4 467.9,7 L467.9,30.9 L467.9,30.9 Z" id="Shape"></path>
                                        <path d="M520.9,30.9 C520.9,34.5 517.9,37.5 514.3,37.5 L485.2,37.5 C481.5,37.5 478.6,34.5 478.6,30.9 L478.6,7 C478.6,3.4 481.6,0.4 485.2,0.4 L514.3,0.4 C517.9,0.4 520.9,3.4 520.9,7 L520.9,30.9 L520.9,30.9 Z" id="Shape"></path>
                                        <path d="M574.1,30.9 C574.1,34.5 571.1,37.5 567.5,37.5 L538.4,37.5 C534.8,37.5 531.8,34.5 531.8,30.9 L531.8,7 C531.8,3.4 534.8,0.4 538.4,0.4 L567.5,0.4 C571.1,0.4 574.1,3.4 574.1,7 L574.1,30.9 L574.1,30.9 Z" id="Shape"></path>
                                    </g>
                                </g>
                                <path d="M479.8,541.9 C479.8,545.8 476.6,548.9 472.8,548.9 L327.2,548.9 C323.3,548.9 320.2,545.7 320.2,541.9 L320.2,424 C320.2,420.1 323.4,417 327.2,417 L472.8,417 C476.7,417 479.8,420.2 479.8,424 L479.8,541.9 L479.8,541.9 Z" id="Shape" fill="#CCCBCB"></path>
                                <path d="M165.7,194.1 C165.7,198.9 169.6,202.9 174.5,202.9 L625.6,202.9 C630.4,202.9 634.4,199 634.4,194.1 L634.4,183.3 L634.4,174.4 C634.4,174.3 634.3,174.3 634.2,174.3 L625.3,174.3 L174.8,174.3 L165.9,174.3 C165.8,174.3 165.7,174.4 165.7,174.4 L165.7,183.3 L165.7,194.1 L165.7,194.1 Z" id="Shape" fill="#221F1F"></path>
                            </g>
                        </g>
                        <g id="report" transform="translate(138.000000, 55.000000)">
                            <g id="Group">
                                <g>
                                    <g id="Rectangle-path" transform="translate(379.333333, 16.224490)" fill="#B8BABC">
                                        <path d="M0.638614835,1.41836735 L136.165112,1.41836735 L135.771429,0 L0,0 L0.638614835,1.41836735 L0.638614835,1.41836735 Z" id="Shape"></path>
                                        <path d="M5.10891868,11.3469388 L138.920898,11.3469388 L138.527214,9.92857143 L4.47030385,9.92857143 L5.10891868,11.3469388 L5.10891868,11.3469388 Z" id="Shape"></path>
                                        <path d="M14.0495264,31.2040816 L144.432468,31.2040816 L144.038785,29.7857143 L13.4109115,29.7857143 L14.0495264,31.2040816 L14.0495264,31.2040816 Z" id="Shape"></path>
                                        <path d="M19.1584451,42.5510204 L147.581937,42.5510204 L147.188254,41.1326531 L18.5198302,41.1326531 L19.1584451,42.5510204 L19.1584451,42.5510204 Z" id="Shape"></path>
                                    </g>
                                    <path d="M123.439056,4.3102041 C48.296391,4.3102041 -7.0090207,20.6214286 0.3244012,40.6204082 C7.6578231,60.6193878 68.99076,76.930612 136.856852,76.930612 C204.722944,76.930612 260.028355,60.6193878 259.971507,40.6204082 C259.968282,39.4857143 259.965056,38.3510204 259.452288,37.2163265 L130.147954,40.6204082 L123.439056,4.3102041 L123.439056,4.3102041 Z" id="Shape" fill="#2980B9"></path>
                                    <path d="M142.091746,36.2234694 L272.253339,32.8193878 C266.206162,14.3806122 207.322763,-0.0867347 136.027934,-0.0867347 L142.091746,36.2234694 L142.091746,36.2234694 Z" id="Shape" fill="#27AE60"></path>
                                    <path d="M314.133531,20.6214286 L340.721632,20.6214286 L341.497852,13.3877551 L314.647584,13.3877551 L314.133531,20.6214286 L314.133531,20.6214286 Z" id="Rectangle-path" fill="#2980B9"></path>
                                    <path d="M312.016842,50.4071429 L337.525431,50.4071429 L338.301651,43.1734694 L312.530895,43.1734694 L312.016842,50.4071429 L312.016842,50.4071429 Z" id="Rectangle-path" fill="#27AE60"></path>
                                </g>
                            </g>
                        </g>
                    </g>
                </g>
            </g>
        </g>
    </g>
</svg>