<?xml version="1.0" encoding="utf-8"?>
<!-- Generator: Adobe Illustrator 18.1.0, SVG Export Plug-In . SVG Version: 6.00 Build 0)  -->
<svg version="1.1" id="Layer_1" xmlns="http://www.w3.org/2000/svg" xmlns:xlink="http://www.w3.org/1999/xlink" x="0px" y="0px"
	 viewBox="0 0 800 600" enable-background="new 0 0 800 600" xml:space="preserve">
<path fill="#3498DB" d="M400,0c165.6,0,300,134.4,300,300S565.6,600,400,600S100,465.6,100,300S234.4,0,400,0z"/>
<path fill="#DADFE1" d="M610,432H190v82.2C244,567,318.4,600,400,600s156-33,210-85.8V432z M610,330H190c0,0,0,165,0,115.2
	c0,22.2,38.4,40.8,85.2,40.8l0,0h236.4l0,0c54.6,0,98.4-21,98.4-46.8C610,495,610,330,610,330z M610,252H190c0,0,0,141,0,91.2
	c0,22.2,36.6,40.8,81.6,40.8l0,0h235.8l0,0c57,0,102.6-21,102.6-46.8V252z"/>
<g>
	<path fill="#E1E5E7" d="M550,559.8c21.6-12.6,42-28.2,60-45.6V246h-60V559.8z M190,514.2c18,17.4,38.4,33,60,45.6V258h-60V514.2z"
		/>
</g>
<path fill="#ECF0F1" d="M530.2,201c-6-28.8-55.8-51-117-51c-47.4,0-88.2,12-106.8,31.2c-5.4-0.6-11.4-1.2-18-1.2
	c-32.4,0-58.8,13.8-58.8,29.4c0,3,0.6,7.8,2.4,10.8c-25.2,7.2-42,18-42,33c0,22.2,38.4,40.8,85.2,40.8l0,0h236.4l0,0
	c54.6,0,98.4-21,98.4-46.8C610,224.4,575.8,205.2,530.2,201z"/>
<path fill="#1ABC9C" d="M421,324c-4.8,0-9,4.2-9,9s4.2,9,9,9s9-4.2,9-9S425.8,324,421,324z M421,426c-4.8,0-9,4.2-9,9s4.2,9,9,9
	s9-4.2,9-9S425.8,426,421,426z M493,528c-4.8,0-9,4.2-9,9s4.2,9,9,9s9-4.2,9-9S497.8,528,493,528z M421,528c-4.8,0-9,4.2-9,9
	s4.2,9,9,9s9-4.2,9-9S425.8,528,421,528z"/>
<path fill="#2ECC71" d="M457,324c-4.8,0-9,4.2-9,9s4.2,9,9,9s9-4.2,9-9S461.8,324,457,324z M493,342c4.8,0,9-4.2,9-9s-4.2-9-9-9
	s-9,4.2-9,9S488.2,342,493,342z M457,426c-4.8,0-9,4.2-9,9s4.2,9,9,9s9-4.2,9-9S461.8,426,457,426z M493,426c-4.8,0-9,4.2-9,9
	s4.2,9,9,9s9-4.2,9-9S497.8,426,493,426z M457,528c-4.8,0-9,4.2-9,9s4.2,9,9,9s9-4.2,9-9S461.8,528,457,528z"/>
<path fill="#BDC3C7" d="M370,318h-90c-3.6,0-6,2.4-6,6v6c0,3.6,2.4,6,6,6h90c3.6,0,6-2.4,6-6v-6C376,320.4,373.6,318,370,318z
	 M370,342h-90c-3.6,0-6,2.4-6,6v6c0,3.6,2.4,6,6,6h90c3.6,0,6-2.4,6-6v-6C376,344.4,373.6,342,370,342z M370,420h-90
	c-3.6,0-6,2.4-6,6v6c0,3.6,2.4,6,6,6h90c3.6,0,6-2.4,6-6v-6C376,422.4,373.6,420,370,420z M370,444h-90c-3.6,0-6,2.4-6,6v6
	c0,3.6,2.4,6,6,6h90c3.6,0,6-2.4,6-6v-6C376,446.4,373.6,444,370,444z M370,522h-90c-3.6,0-6,2.4-6,6v6c0,3.6,2.4,6,6,6h90
	c3.6,0,6-2.4,6-6v-6C376,524.4,373.6,522,370,522z M370,546h-90c-3.6,0-6,2.4-6,6v6c0,3.6,2.4,6,6,6h90c3.6,0,6-2.4,6-6v-6
	C376,548.4,373.6,546,370,546z"/>
<path fill="#BDC3C7" d="M400,192c-33,0-60,12-60,30s27,30,60,30s60-13.2,60-30S433,192,400,192z M429.4,214.8l-34.2,18.6
	c-1.2,0.6-3.6,1.2-5.4,1.2c-2.4,0-4.2,0-6-0.6l-13.8-7.2c-2.4-1.2-2.4-3.6,0-4.8s6.6-1.2,9,0l10.2,5.4l31.2-16.8
	c2.4-1.2,6.6-1.2,9,0C431.8,211.8,431.8,213.6,429.4,214.8z"/>
<path fill="#BDC3C7" d="M610,432v18.6v-11.4c0,25.8-43.8,46.8-98.4,46.8l0,0H275.2l0,0c-47.4,0-85.2-18-85.2-40.8v9.6V432l0,0v35.4
	c15,16.8,46.8,27.6,85.2,27.6h236.4c44.4,0,82.2-13.8,98.4-33V432z M610,330v20.4v-13.2c0,25.8-46.2,46.8-102.6,46.8l0,0H271.6l0,0
	c-45,0-81.6-18-81.6-40.8V354v-24l0,0v35.4c14.4,16.8,45,27.6,81.6,27.6h235.8c47.4,0,85.8-13.2,102.6-33V330z"/>
<g>
	<path fill="#BFC2C4" d="M610,350.4v-13.2c0,19.2-24.6,35.4-60,42.6v9.6c27-5.4,48.6-15.6,60-29.4v-30l0,0V350.4z M250,391.8v-9
		c-34.8-4.8-60-20.4-60-39V354v-24l0,0v35.4C201.4,378.6,223,388.2,250,391.8z"/>
</g>
<g>
	<path fill="#BFC2C4" d="M610,449.4v-10.2c0,19.2-24.6,36-60,43.2v9c27-5.4,48.6-16.2,60-29.4v-30l0,0V449.4z M250,493.2v-9
		c-34.8-5.4-60-20.4-60-39v9V432l0,0v35.4C201.4,480,223,489.6,250,493.2z"/>
</g>
</svg>
